<svg width="150" height="150" viewBox="0 0 150 150" fill="none" xmlns="http://www.w3.org/2000/svg">
<rect width="150" height="150" fill="#F3F4F6"/>
<path d="M55 45C51.6863 45 49 47.6863 49 51V99C49 102.314 51.6863 105 55 105H95C98.3137 105 101 102.314 101 99V51C101 47.6863 98.3137 45 95 45H55ZM55 51H95V99H55V51Z" fill="#9CA3AF"/>
<path d="M61 63C63.2091 63 65 61.2091 65 59C65 56.7909 63.2091 55 61 55C58.7909 55 57 56.7909 57 59C57 61.2091 58.7909 63 61 63Z" fill="#9CA3AF"/>
<path d="M95 87L87 75L79 87H95Z" fill="#9CA3AF"/>
<path d="M79 87L71 75L57 93H87L79 87Z" fill="#9CA3AF"/>
</svg>
